<?xml version="1.0" encoding="utf-8"?>
<!-- Generator: Adobe Illustrator 23.0.2, SVG Export Plug-In . SVG Version: 6.00 Build 0)  -->
<svg version="1.1" id="Layer_1" xmlns="http://www.w3.org/2000/svg" xmlns:xlink="http://www.w3.org/1999/xlink" x="0px" y="0px"
	 viewBox="0 0 595.28 841.89" style="enable-background:new 0 0 595.28 841.89;" xml:space="preserve">
<style type="text/css">
	.st0{fill:#FFFFFF;}
</style>
<g>
	<path class="st0" d="M136,567c0-114.33,0-228.67,0-343c108.33,0,216.67,0,325,0c0,114.33,0,228.67,0,343
		C352.67,567,244.33,567,136,567z M370.67,471.93c0.92-1.14,2.02-1.98,2.45-3.09c8.55-22.04,15.41-44.36,14.09-68.52
		c-0.64-11.73-3.35-22.42-9.1-32.79c-8.74-15.78-22.2-25.47-38.23-32.15c-15.86-6.61-32.48-10.02-49.7-8.71
		c-7.31,0.56-14.53,2.52-21.75,4c-15.02,3.09-28.35,9.87-39.77,19.91c-12.43,10.93-20.14,25.16-22.09,41.42
		c-1.78,14.91-0.89,30.15,3.2,44.78c2.86,10.22,7.09,20.06,10.02,30.27c1.28,4.45,2.98,4.49,6.13,2.53
		c10.62-6.62,21.81-9.35,34.36-6.47c8,1.83,14.71,5.28,20.16,11.38c4.92,5.5,9.82,10.6,18.51,9.49c6.6-0.84,10.21-5.3,14.06-9.49
		c7.49-8.14,16.96-11.85,27.59-12.47C351.58,461.39,361.67,464.54,370.67,471.93z M343.71,533.58c7.84,1.05,14.56-2.99,19.73-7.98
		c7.93-7.66,10.15-17.51,7.39-28.73c-3.46-14.07-18.4-22.16-29.69-21.37c-9.66,0.68-17.43,6.12-23.23,13.62
		c-8.51,11.01-29.88,10.34-38.44,3.21c-7.82-6.51-13.88-15.85-25.36-16.29c-4.92-0.19-10.53-0.25-14.71,1.86
		c-8.59,4.34-15.27,10.45-17.13,21.31c-1.85,10.81,1.77,21.35,9.08,27.47c12.22,10.22,29.12,9.78,39.74-1.89
		c6.62-7.27,14.33-12.81,24.52-13.18c11.06-0.4,19.53,4.89,26.67,13.02C327.8,530.93,334.83,534.25,343.71,533.58z M235.24,328.6
		c41.15-21.32,81.86-21.18,122.9-0.1c0-10.67,0.12-19.99-0.13-29.3c-0.04-1.4-1.46-3.42-2.75-3.99c-2.35-1.04-5.06-1.43-7.66-1.72
		c-12.42-1.41-21.04-8-27.04-18.79c-6.13-11.04-12.65-21.88-19.09-32.74c-1.81-3.05-6.9-3.25-8.74-0.25
		c-6.29,10.26-12.8,20.41-18.4,31.05c-3.2,6.08-7.4,10.75-12.65,14.93c-6.27,4.98-14.02,5.1-21.13,7.35c-2,0.63-5.01,2.61-5.08,4.09
		C235.01,308.53,235.24,317.99,235.24,328.6z M181.73,384.52c0.17-0.4,0.33-0.8,0.5-1.21c6.38-0.01,8.15-2.41,4.75-7.83
		c-8.46-13.47-20.74-21.66-36.53-24.14c-2.08-0.33-5.49,0.18-6.33,1.53c-0.95,1.51-0.38,4.84,0.73,6.64
		c4.65,7.51,11.01,13.48,18.91,17.44C169.54,379.86,175.72,382.03,181.73,384.52z M443.33,351.33c-1.16,0-2.34-0.11-3.48,0.04
		c-0.78,0.1-1.49,0.67-2.27,0.86c-10.76,2.61-18.79,9.86-26.99,16.53c-2.7,2.2-4.11,6.35-5.23,9.89c-0.34,1.07,2.21,4.36,3.51,4.41
		c3.7,0.13,7.64-0.31,11.12-1.57c11.72-4.22,21.86-10.91,28.43-21.76C452.31,353.28,450.8,351.24,443.33,351.33z M274.39,541.74
		c9.67,10.67,41.02,8.83,43.58,1.54c-3.74-5.01-7.15-8.73-9.56-13.01c-3.21-5.71-17.74-5.64-21.62-1.7
		C282.63,532.76,278.68,537.15,274.39,541.74z"/>
	<path d="M370.67,471.93c-9-7.38-19.1-10.54-30.07-9.91c-10.62,0.61-20.1,4.32-27.59,12.47c-3.85,4.19-7.45,8.65-14.06,9.49
		c-8.69,1.11-13.59-3.99-18.51-9.49c-5.45-6.1-12.15-9.54-20.16-11.38c-12.55-2.88-23.74-0.15-34.36,6.47
		c-3.15,1.96-4.86,1.93-6.13-2.53c-2.92-10.21-7.16-20.05-10.02-30.27c-4.09-14.64-4.98-29.87-3.2-44.78
		c1.94-16.26,9.65-30.49,22.09-41.42c11.42-10.03,24.76-16.81,39.77-19.91c7.22-1.49,14.44-3.45,21.75-4
		c17.22-1.31,33.84,2.1,49.7,8.71c16.03,6.68,29.49,16.38,38.23,32.15c5.74,10.37,8.46,21.05,9.1,32.79
		c1.31,24.16-5.55,46.48-14.09,68.52C372.69,469.94,371.6,470.79,370.67,471.93z M361.99,382.28c-6.98,2.71-14.43,4.6-20.82,8.31
		c-11.1,6.44-22.37,13.15-29.21,24.66c-1.41,2.38-1.9,5.97-1.24,8.62c0.3,1.21,4.43,2.08,6.79,2.02c3.23-0.09,6.74-0.6,9.58-2.03
		c8.43-4.24,16.83-8.64,24.78-13.7c6.79-4.32,12.63-10.04,16.28-17.38C371.52,386.02,368.1,382.16,361.99,382.28z M275.07,427.11
		c3-1.24,6.23-1.68,7.85-3.53c1.14-1.3,0.55-4.65-0.11-6.83c-0.58-1.94-2.16-3.66-3.56-5.25c-11.82-13.47-26.88-22.03-43.57-27.75
		c-3.01-1.03-7.56-0.37-10.14,1.38c-1.33,0.9-0.95,6.55,0.51,8.89c2.63,4.21,6.21,8.16,10.21,11.12
		c7.72,5.69,15.85,10.89,24.12,15.75C264.81,423.48,269.88,424.96,275.07,427.11z"/>
	<path d="M343.71,533.58c-8.88,0.67-15.92-2.65-21.43-8.94c-7.14-8.13-15.61-13.42-26.67-13.02c-10.18,0.37-17.89,5.91-24.52,13.18
		c-10.63,11.67-27.53,12.12-39.74,1.89c-7.31-6.12-10.93-16.66-9.08-27.47c1.86-10.86,8.54-16.98,17.13-21.31
		c4.18-2.11,9.79-2.05,14.71-1.86c11.48,0.43,17.54,9.78,25.36,16.29c8.56,7.12,29.93,7.79,38.44-3.21
		c5.8-7.5,13.57-12.94,23.23-13.62c11.29-0.79,26.22,7.3,29.69,21.37c2.76,11.21,0.54,21.07-7.39,28.73
		C358.27,530.59,351.55,534.63,343.71,533.58z"/>
	<path d="M235.24,328.6c0-10.61-0.23-20.07,0.24-29.49c0.07-1.48,3.08-3.45,5.08-4.09c7.11-2.25,14.86-2.36,21.13-7.35
		c5.25-4.18,9.45-8.85,12.65-14.93c5.6-10.63,12.11-20.79,18.4-31.05c1.84-3,6.93-2.8,8.74,0.25c6.44,10.87,12.96,21.7,19.09,32.74
		c5.99,10.79,14.61,17.39,27.04,18.79c2.6,0.29,5.31,0.68,7.66,1.72c1.29,0.58,2.72,2.59,2.75,3.99c0.24,9.31,0.13,18.63,0.13,29.3
		C317.1,307.42,276.39,307.28,235.24,328.6z"/>
	<path d="M181.73,384.52c-6.01-2.5-12.18-4.66-17.98-7.58c-7.89-3.97-14.25-9.94-18.91-17.44c-1.11-1.79-1.68-5.12-0.73-6.64
		c0.84-1.35,4.25-1.86,6.33-1.53c15.79,2.48,28.07,10.67,36.53,24.14c3.4,5.42,1.64,7.82-4.75,7.83
		C182.06,383.72,181.89,384.12,181.73,384.52z"/>
	<path d="M443.33,351.33c7.47-0.09,8.98,1.95,5.08,8.39c-6.56,10.85-16.71,17.54-28.43,21.76c-3.48,1.25-7.42,1.69-11.12,1.57
		c-1.3-0.05-3.85-3.34-3.51-4.41c1.13-3.54,2.53-7.69,5.23-9.89c8.2-6.68,16.23-13.92,26.99-16.53c0.78-0.19,1.49-0.75,2.27-0.86
		C440.99,351.22,442.17,351.33,443.33,351.33z"/>
	<path d="M274.39,541.74c4.29-4.58,8.24-8.98,12.39-13.18c3.89-3.93,18.41-4,21.62,1.7c2.41,4.28,5.82,8,9.56,13.01
		C315.41,550.57,284.06,552.41,274.39,541.74z"/>
	<path class="st0" d="M361.99,382.28c6.11-0.12,9.53,3.74,6.17,10.49c-3.65,7.34-9.49,13.06-16.28,17.38
		c-7.95,5.06-16.35,9.46-24.78,13.7c-2.84,1.43-6.35,1.94-9.58,2.03c-2.36,0.07-6.49-0.81-6.79-2.02c-0.66-2.64-0.17-6.24,1.24-8.62
		c6.84-11.51,18.1-18.22,29.21-24.66C347.57,386.87,355.02,384.99,361.99,382.28z"/>
	<path class="st0" d="M275.07,427.11c-5.19-2.15-10.26-3.63-14.68-6.23c-8.27-4.86-16.4-10.06-24.12-15.75
		c-4-2.95-7.58-6.9-10.21-11.12c-1.46-2.34-1.85-7.99-0.51-8.89c2.58-1.75,7.14-2.41,10.14-1.38c16.69,5.72,31.74,14.29,43.57,27.75
		c1.4,1.59,2.98,3.32,3.56,5.25c0.65,2.18,1.25,5.53,0.11,6.83C281.3,425.43,278.08,425.88,275.07,427.11z"/>
</g>
</svg>
